<svg xmlns="http://www.w3.org/2000/svg" width="24" height="24" viewBox="0 0 24 24">
  <circle cx="12" cy="12" r="3" fill="none" stroke="#6b7280" stroke-width="2" stroke-linecap="round" stroke-linejoin="round"/>
  <path d="M12 2a3 3 0 0 0 0 6" fill="none" stroke="#6b7280" stroke-width="2" stroke-linecap="round" stroke-linejoin="round"/>
  <path d="M12 22a3 3 0 0 1 0-6" fill="none" stroke="#6b7280" stroke-width="2" stroke-linecap="round" stroke-linejoin="round"/>
  <path d="M2 12a3 3 0 0 1 6 0" fill="none" stroke="#6b7280" stroke-width="2" stroke-linecap="round" stroke-linejoin="round"/>
  <path d="M22 12a3 3 0 0 0-6 0" fill="none" stroke="#6b7280" stroke-width="2" stroke-linecap="round" stroke-linejoin="round"/>
  <path d="M4.93 4.93a3 3 0 0 0 4.24 4.24" fill="none" stroke="#6b7280" stroke-width="2" stroke-linecap="round" stroke-linejoin="round"/>
  <path d="M19.07 4.93a3 3 0 0 1-4.24 4.24" fill="none" stroke="#6b7280" stroke-width="2" stroke-linecap="round" stroke-linejoin="round"/>
  <path d="M4.93 19.07a3 3 0 0 1 4.24-4.24" fill="none" stroke="#6b7280" stroke-width="2" stroke-linecap="round" stroke-linejoin="round"/>
  <path d="M19.07 19.07a3 3 0 0 0-4.24-4.24" fill="none" stroke="#6b7280" stroke-width="2" stroke-linecap="round" stroke-linejoin="round"/>
</svg>
